<?xml version="1.0"?><svg width="640" height="480" xmlns="http://www.w3.org/2000/svg">
 <title>cupcake</title>
 <metadata id="metadata16">image/svg+xml</metadata>
 <g>
  <title>Layer 1</title>
  <path id="svg_6" stroke-dasharray="5,5" fill="#ffd4aa" fill-rule="evenodd" stroke-width="0" d="m110.760017,277.955994l60.719322,154.740021l160.823944,1.097992l57.436707,-154.740021l-278.97998,-1.097992l0.000008,0z"/>
  <rect transform="rotate(-14.5464 167.25 352.938)" id="svg_8" height="163.421344" width="2.460867" y="271.226825" x="166.019566" stroke-linecap="round" stroke-linejoin="round" stroke-dasharray="null" stroke-width="99" fill="#ffffff"/>
  <rect id="svg_10" transform="rotate(-7.68403 208.5 350.625)" height="163.421344" width="2.460867" y="268.914294" x="207.269695" stroke-linecap="round" stroke-linejoin="round" stroke-dasharray="null" stroke-width="99" fill="#ffffff"/>
  <rect id="svg_11" transform="rotate(-1.302 251.625 350)" height="163.421344" width="2.460867" y="268.289294" x="250.394688" stroke-linecap="round" stroke-linejoin="round" stroke-dasharray="null" stroke-width="99" fill="#ffffff"/>
  <rect id="svg_13" transform="rotate(4.08557 293.5 350.625)" height="163.421344" width="2.460867" y="268.914294" x="292.269688" stroke-linecap="round" stroke-linejoin="round" stroke-dasharray="null" stroke-width="99" fill="#ffffff"/>
  <rect id="svg_14" transform="rotate(14.5176 333.125 353.75)" height="163.421344" width="2.460867" y="272.03931" x="331.894566" stroke-linecap="round" stroke-linejoin="round" stroke-dasharray="null" stroke-width="99" fill="#ffffff"/>
  <path fill="#ff007f" fill-rule="evenodd" stroke-width="5.798" stroke-linecap="round" stroke-linejoin="round" stroke-miterlimit="4" stroke-dashoffset="0" id="path2387" d="m165.964005,250.695999c0,21.697006 -19.187012,39.285995 -42.857002,39.285995c-23.669205,0 -42.857002,-17.588989 -42.857002,-39.285995c0,-21.695999 19.187798,-39.285004 42.857002,-39.285004c23.669991,0 42.857002,17.589005 42.857002,39.285004l0,0z"/>
  <path fill="#ff007f" fill-rule="evenodd" stroke-width="5.798" stroke-linecap="round" stroke-linejoin="round" stroke-miterlimit="4" stroke-dashoffset="0" id="path2389" d="m216.393005,254.410995c0,21.697006 -19.188004,39.285019 -42.85701,39.285019c-23.669998,0 -42.856995,-17.588013 -42.856995,-39.285019c0,-21.696991 19.186996,-39.285995 42.856995,-39.285995c23.669006,0 42.85701,17.589005 42.85701,39.285995l0,0z"/>
  <path fill="#ff007f" fill-rule="evenodd" stroke-width="5.798" stroke-linecap="round" stroke-linejoin="round" stroke-miterlimit="4" stroke-dashoffset="0" id="path2391" d="m275.106995,255.481995c0,21.696991 -19.187988,39.286011 -42.856995,39.286011c-23.669006,0 -42.856995,-17.58902 -42.856995,-39.286011c0,-21.696991 19.187988,-39.285995 42.856995,-39.285995c23.669006,0 42.856995,17.589005 42.856995,39.285995l0,0z"/>
  <path fill="#ff007f" fill-rule="evenodd" stroke-width="5.798" stroke-linecap="round" stroke-linejoin="round" stroke-miterlimit="4" stroke-dashoffset="0" id="path2393" d="m323.536011,254.195999c0,21.697006 -19.188019,39.285995 -42.857025,39.285995c-23.669983,0 -42.857986,-17.588989 -42.857986,-39.285995c0,-21.695999 19.188004,-39.285004 42.857986,-39.285004c23.669006,0 42.857025,17.589005 42.857025,39.285004l0,0z"/>
  <path fill="#ff007f" fill-rule="evenodd" stroke-width="5.798" stroke-linecap="round" stroke-linejoin="round" stroke-miterlimit="4" stroke-dashoffset="0" id="path2395" d="m367.821014,253.339005c0,21.697006 -19.187012,39.285995 -42.857025,39.285995c-23.668976,0 -42.856995,-17.588989 -42.856995,-39.285995c0,-21.697006 19.188019,-39.285004 42.856995,-39.285004c23.670013,0 42.857025,17.587997 42.857025,39.285004l0,0z"/>
  <path fill="#ff007f" fill-rule="evenodd" stroke-width="5.798" stroke-linecap="round" stroke-linejoin="round" stroke-miterlimit="4" stroke-dashoffset="0" id="path2397" d="m416.75,247.554001c0,21.695999 -19.187988,39.284988 -42.856995,39.284988c-23.669006,0 -42.856995,-17.588989 -42.856995,-39.284988c0,-21.697006 19.187988,-39.285995 42.856995,-39.285995c23.669006,0 42.856995,17.588989 42.856995,39.285995l0,0z"/>
  <path fill="#ff007f" fill-rule="evenodd" stroke-width="5.798" stroke-linecap="round" stroke-linejoin="round" stroke-miterlimit="4" stroke-dashoffset="0" id="path2399" d="m249.763,99.624001c-22.569,0 19.406006,16.321976 -42.75,30.374992c-62.156006,14.053009 -103.958,52.048004 -104.405998,98.188004l297.155998,0c-0.455994,-46.880997 -45.692993,-86.371994 -107.342987,-98.780991c-2.025024,-16.697006 -20.35202,-29.782005 -42.656998,-29.782005l0,0l0,0l-0.000015,0z"/>
  <g id="svg_206"/>
 </g>
</svg>