<?xml version="1.0" encoding="iso-8859-1"?>
<!-- Generator: Adobe Illustrator 16.0.0, SVG Export Plug-In . SVG Version: 6.00 Build 0)  -->
<!DOCTYPE svg PUBLIC "-//W3C//DTD SVG 1.1//EN" "http://www.w3.org/Graphics/SVG/1.1/DTD/svg11.dtd">
<svg version="1.1" id="Capa_1" xmlns="http://www.w3.org/2000/svg" xmlns:xlink="http://www.w3.org/1999/xlink" x="0px" y="0px"
	 width="485.945px" height="485.945px" viewBox="0 0 485.945 485.945" style="enable-background:new 0 0 485.945 485.945;"
	 xml:space="preserve">
<g>
	<g>
		<g>
			<path d="M149.835,86.26c0-15.379-12.465-27.844-27.844-27.844H72.386c-15.375,0-27.84,12.465-27.84,27.844v30.875h105.289V86.26
				L149.835,86.26z"/>
			<path d="M319.914,234.393c-36.556,0-66.277,29.738-66.277,66.285c0,36.551,29.724,66.289,66.277,66.289
				c36.559,0,66.279-29.738,66.279-66.289C386.195,264.131,356.473,234.393,319.914,234.393z"/>
			<path d="M449.5,140.721h-15.691l-21.957-87.809C407.805,36.689,393.219,25.31,376.5,25.31H255.234
				c-16.723,0-31.305,11.379-35.355,27.602l-21.957,87.809H36.445C16.324,140.721,0,157.037,0,177.166v247.023
				c0,20.129,16.324,36.445,36.445,36.445h62.77V210.112c0-8.945,7.246-16.199,16.199-16.199s16.199,7.254,16.199,16.199v250.523
				H449.5c20.121,0,36.445-16.316,36.445-36.445V177.166C485.945,157.037,469.621,140.721,449.5,140.721z M253.098,71.92
				c0-3.355,2.724-6.074,6.074-6.074h115.414c3.352,0,6.074,2.719,6.074,6.074v39.141c0,3.355-2.726,6.074-6.074,6.074H259.172
				c-3.353,0-6.074-2.719-6.074-6.074V71.92z M319.914,421.389c-66.564,0-120.712-54.151-120.712-120.711
				c0-66.555,54.146-120.711,120.712-120.711c66.564,0,120.711,54.156,120.711,120.711
				C440.625,367.238,386.48,421.389,319.914,421.389z"/>
		</g>
	</g>
</g>
<g>
</g>
<g>
</g>
<g>
</g>
<g>
</g>
<g>
</g>
<g>
</g>
<g>
</g>
<g>
</g>
<g>
</g>
<g>
</g>
<g>
</g>
<g>
</g>
<g>
</g>
<g>
</g>
<g>
</g>
</svg>
